<?xml version="1.0" ?><svg id="Love" style="enable-background:new 0 0 32 32;" version="1.1" viewBox="0 0 32 32" xml:space="preserve" xmlns="http://www.w3.org/2000/svg" xmlns:xlink="http://www.w3.org/1999/xlink"><style type="text/css">
	.st0{fill:#F25949;}
	.st1{fill:#FFFFFF;}
</style><g><path class="st0" d="M27.49,5.93c-3.13-3.09-8.15-3.19-11.47-0.33c-0.01,0-0.01,0-0.02,0.01C12.803,2.678,7.471,2.842,4.47,5.98   c-3.29,3.29-3.29,8.65,0,11.94l9.85,9.88c0.45,0.45,1.05,0.7,1.68,0.7s1.23-0.25,1.68-0.7l9.85-9.88   C30.822,14.769,30.794,9.061,27.49,5.93z M10.43,8.5c-0.913,0-1.773,0.357-2.423,1.007c-0.363,0.363-0.644,0.812-0.812,1.298   C7.053,11.22,6.665,11.48,6.25,11.48c-0.108,0-0.218-0.018-0.326-0.055c-0.522-0.18-0.8-0.749-0.62-1.271   c0.265-0.771,0.71-1.483,1.288-2.061C7.621,7.065,8.983,6.5,10.43,6.5c0.552,0,1,0.448,1,1S10.982,8.5,10.43,8.5z"/><path class="st1" d="M10.43,6.5c-1.447,0-2.81,0.565-3.838,1.593C6.015,8.671,5.57,9.384,5.305,10.154   c-0.18,0.522,0.098,1.091,0.62,1.271c0.108,0.037,0.218,0.055,0.326,0.055c0.415,0,0.803-0.261,0.945-0.675   c0.167-0.486,0.448-0.935,0.812-1.298C8.657,8.857,9.517,8.5,10.43,8.5c0.552,0,1-0.448,1-1S10.982,6.5,10.43,6.5z"/></g></svg>