<svg width="311" height="283" viewBox="0 0 311 283" fill="none" xmlns="http://www.w3.org/2000/svg">
<circle cx="234.512" cy="8.0625" r="8.0625" fill="url(#paint0_radial_20_2)"/>
<path d="M232.057 69.313C232.057 111.32 198.02 145.374 156.033 145.374C114.046 145.374 80.0088 111.32 80.0088 69.313C80.0088 59.6441 72.7105 52.2754 86.6552 43.1481C89.1317 27.936 99.3072 27.7803 107.986 26.1105C120.15 6.63897 121.974 3.59657 156.033 12.7239C187.051 2.98806 189.484 6.63898 202.256 26.1105C211.378 28.5445 220.501 26.1105 223.67 43.1481C239.964 48.6245 232.057 60.0622 232.057 69.313Z" fill="url(#paint1_radial_20_2)"/>
<g filter="url(#filter0_bdi_20_2)">
<path d="M50.199 93.2743C49.0216 81.5006 58.2673 71.2842 70.0998 71.2842H240.9C252.733 71.2842 261.978 81.5006 260.801 93.2743L248.676 214.524C247.654 224.748 239.05 232.534 228.775 232.534H82.2248C71.9497 232.534 63.3464 224.748 62.324 214.524L50.199 93.2743Z" fill="url(#paint2_radial_20_2)" shape-rendering="crispEdges"/>
</g>
<g filter="url(#filter1_d_20_2)">
<rect x="85.625" y="88.15" width="139.75" height="69.875" rx="10" fill="#F1F1F1"/>
</g>
<rect x="94.225" y="101.05" width="69.875" height="44.075" rx="3" fill="#202020"/>
<rect x="129.612" y="109.694" width="26.3265" height="26.3265" rx="3" fill="#808080"/>
<rect x="105.041" y="126.367" width="9.65306" height="9.65306" rx="3" fill="black"/>
<rect x="103.286" y="109.694" width="13.1633" height="5.26531" rx="2.63265" fill="#BBAA15"/>
<circle cx="101.969" cy="103.99" r="1.31633" fill="#D9D9D9"/>
<circle cx="101.969" cy="142.602" r="1.31633" fill="#D9D9D9"/>
<circle cx="106.357" cy="103.99" r="1.31633" fill="#D9D9D9"/>
<circle cx="106.357" cy="142.602" r="1.31633" fill="#D9D9D9"/>
<circle cx="110.745" cy="103.99" r="1.31633" fill="#D9D9D9"/>
<circle cx="110.745" cy="142.602" r="1.31633" fill="#D9D9D9"/>
<circle cx="115.133" cy="103.99" r="1.31633" fill="#D9D9D9"/>
<circle cx="115.133" cy="142.602" r="1.31633" fill="#D9D9D9"/>
<circle cx="119.52" cy="103.99" r="1.31633" fill="#D9D9D9"/>
<circle cx="119.52" cy="142.602" r="1.31633" fill="#D9D9D9"/>
<circle cx="123.908" cy="103.99" r="1.31633" fill="#D9D9D9"/>
<circle cx="123.908" cy="142.602" r="1.31633" fill="#D9D9D9"/>
<circle cx="128.296" cy="103.99" r="1.31633" fill="#D9D9D9"/>
<circle cx="128.296" cy="142.602" r="1.31633" fill="#D9D9D9"/>
<circle cx="132.684" cy="103.99" r="1.31633" fill="#D9D9D9"/>
<circle cx="132.684" cy="142.602" r="1.31633" fill="#D9D9D9"/>
<circle cx="137.071" cy="103.99" r="1.31633" fill="#D9D9D9"/>
<circle cx="137.071" cy="142.602" r="1.31633" fill="#D9D9D9"/>
<circle cx="141.459" cy="103.99" r="1.31633" fill="#D9D9D9"/>
<circle cx="141.459" cy="142.602" r="1.31633" fill="#D9D9D9"/>
<circle cx="145.847" cy="103.99" r="1.31633" fill="#D9D9D9"/>
<circle cx="145.847" cy="142.602" r="1.31633" fill="#D9D9D9"/>
<circle cx="150.235" cy="103.99" r="1.31633" fill="#D9D9D9"/>
<circle cx="150.235" cy="142.602" r="1.31633" fill="#D9D9D9"/>
<circle cx="154.622" cy="103.99" r="1.31633" fill="#D9D9D9"/>
<circle cx="154.622" cy="142.602" r="1.31633" fill="#D9D9D9"/>
<circle cx="159.01" cy="103.99" r="1.31633" fill="#D9D9D9"/>
<circle cx="159.01" cy="142.602" r="1.31633" fill="#D9D9D9"/>
<rect x="172.7" y="101.05" width="44.075" height="44.075" rx="3" fill="#131430"/>
<rect x="172.612" y="109.694" width="43.8776" height="26.3265" fill="black"/>
<circle cx="187.969" cy="103.99" r="1.31633" fill="#D9D9D9"/>
<circle cx="192.357" cy="103.99" r="1.31633" fill="#D9D9D9"/>
<circle cx="196.745" cy="103.99" r="1.31633" fill="#D9D9D9"/>
<circle cx="201.133" cy="103.99" r="1.31633" fill="#D9D9D9"/>
<circle cx="180.51" cy="120.224" r="4.38775" fill="white"/>
<circle cx="209.469" cy="120.224" r="4.38775" fill="white"/>
<path d="M189.286 124.612C191.041 126.367 195.867 128.824 201.133 124.612" stroke="white" stroke-width="2" stroke-linecap="round"/>
<defs>
<filter id="filter0_bdi_20_2" x="0.0977783" y="21.2842" width="310.804" height="261.25" filterUnits="userSpaceOnUse" color-interpolation-filters="sRGB">
<feFlood flood-opacity="0" result="BackgroundImageFix"/>
<feGaussianBlur in="BackgroundImageFix" stdDeviation="15"/>
<feComposite in2="SourceAlpha" operator="in" result="effect1_backgroundBlur_20_2"/>
<feColorMatrix in="SourceAlpha" type="matrix" values="0 0 0 0 0 0 0 0 0 0 0 0 0 0 0 0 0 0 127 0" result="hardAlpha"/>
<feOffset/>
<feGaussianBlur stdDeviation="25"/>
<feComposite in2="hardAlpha" operator="out"/>
<feColorMatrix type="matrix" values="0 0 0 0 0 0 0 0 0 0 0 0 0 0 0 0 0 0 0.3 0"/>
<feBlend mode="normal" in2="effect1_backgroundBlur_20_2" result="effect2_dropShadow_20_2"/>
<feBlend mode="normal" in="SourceGraphic" in2="effect2_dropShadow_20_2" result="shape"/>
<feColorMatrix in="SourceAlpha" type="matrix" values="0 0 0 0 0 0 0 0 0 0 0 0 0 0 0 0 0 0 127 0" result="hardAlpha"/>
<feOffset dx="-6" dy="6"/>
<feGaussianBlur stdDeviation="3"/>
<feComposite in2="hardAlpha" operator="arithmetic" k2="-1" k3="1"/>
<feColorMatrix type="matrix" values="0 0 0 0 1 0 0 0 0 1 0 0 0 0 1 0 0 0 0.3 0"/>
<feBlend mode="normal" in2="shape" result="effect3_innerShadow_20_2"/>
</filter>
<filter id="filter1_d_20_2" x="81.625" y="88.15" width="147.75" height="77.875" filterUnits="userSpaceOnUse" color-interpolation-filters="sRGB">
<feFlood flood-opacity="0" result="BackgroundImageFix"/>
<feColorMatrix in="SourceAlpha" type="matrix" values="0 0 0 0 0 0 0 0 0 0 0 0 0 0 0 0 0 0 127 0" result="hardAlpha"/>
<feOffset dy="4"/>
<feGaussianBlur stdDeviation="2"/>
<feComposite in2="hardAlpha" operator="out"/>
<feColorMatrix type="matrix" values="0 0 0 0 0 0 0 0 0 0 0 0 0 0 0 0 0 0 0.25 0"/>
<feBlend mode="normal" in2="BackgroundImageFix" result="effect1_dropShadow_20_2"/>
<feBlend mode="normal" in="SourceGraphic" in2="effect1_dropShadow_20_2" result="shape"/>
</filter>
<radialGradient id="paint0_radial_20_2" cx="0" cy="0" r="1" gradientUnits="userSpaceOnUse" gradientTransform="translate(229.675 1.6125) rotate(49.844) scale(22.5045)">
<stop stop-color="#E1F11E"/>
<stop offset="0.276042" stop-color="#AEE20F"/>
<stop offset="0.75" stop-color="#14AB27"/>
<stop offset="1" stop-color="#129022"/>
</radialGradient>
<radialGradient id="paint1_radial_20_2" cx="0" cy="0" r="1" gradientUnits="userSpaceOnUse" gradientTransform="translate(200.955 16.6523) rotate(122.672) scale(125.055 141.448)">
<stop stop-color="#E1F11E"/>
<stop offset="0.239583" stop-color="#AEE20F"/>
<stop offset="0.755208" stop-color="#14AB27"/>
<stop offset="1" stop-color="#129022"/>
</radialGradient>
<radialGradient id="paint2_radial_20_2" cx="0" cy="0" r="1" gradientUnits="userSpaceOnUse" gradientTransform="translate(200.65 93.3217) rotate(125.244) scale(170.456 227.275)">
<stop stop-color="white" stop-opacity="0"/>
<stop offset="1" stop-color="#843700"/>
</radialGradient>
</defs>
</svg>
